# xmcd
#
# Track frame offsets:
# 150
# 19804
# 35428
# 51118
# 67368
# 81623
# 98745
# 114050
# 131123
# 143601
# 170333
# 186207
# 200805
# 219739
#
# Disc length: 3152 seconds
#
#
# Revision: 0
# Processed by: cddbd v1.5.2PL0 Copyright (c) Steve Scherf et al.
# Submitted via: FreeRIP 2.951 
#
DISCID=d20c4e0e
DTITLE=LUIZ CLAUDIO E GIULIANO AO VIVO - LUIZ CLAUDIO E GIULIANO AO VIVO
DYEAR=2007
DGENRE=SERTANEJO
TTITLE0=EU SOU PEAO
TTITLE1=OLHE PRA NOS DOIS
TTITLE2=FOI COVARDIA
TTITLE3=VEM FICAR COMIGO
TTITLE4=O PROBLEMA E SEU
TTITLE5=DOIS APAIXONADOS
TTITLE6=TA MENTINDO
TTITLE7=EU QUERO TE AMAR
TTITLE8=P.Q.P.
TTITLE9=VEM NIMIM PAIXAO/FUSCAO PRETO
TTITLE10=O MEU SEGREDO
TTITLE11=AMOR QUE NAO TEM FIM
TTITLE12=SO MAIS UMA VEZ/SE DEUS ME OUVISSE
TTITLE13=PRANTO ESCONDIDO/SOM DE CRISTAL
EXTD=
EXTT0=
EXTT1=
EXTT2=
EXTT3=
EXTT4=
EXTT5=
EXTT6=
EXTT7=
EXTT8=
EXTT9=
EXTT10=
EXTT11=
EXTT12=
EXTT13=
PLAYORDER=
